<svg width="20" height="20" viewBox="0 0 20 20" fill="none" xmlns="http://www.w3.org/2000/svg">
<path d="M4.83215 3.2992C3.9724 3.85343 2.40998 3.26513 1.77237 4.19672C1.5782 4.48041 1.67411 4.85518 1.86594 5.60471L3.52375 13.7491C3.8987 15.2142 4.08618 15.9467 4.66814 16.3743C4.90634 16.5494 5.15252 16.6314 5.41602 16.6667M4.83215 3.2992C5.98659 2.555 4.99209 1.66675 6.66602 1.66675L8.462 3.07765C9.1773 3.63958 9.53495 3.92054 9.56191 4.31793C9.58887 4.71532 9.27275 5.04644 8.64051 5.70868L8.17877 6.19233C7.86265 6.52345 7.70459 6.68901 7.51489 6.67489C7.3252 6.66077 7.19108 6.47346 6.92284 6.09884L4.83215 3.2992ZM15.1665 3.2992C16.0263 3.85343 17.5887 3.26513 18.2263 4.19672C18.4205 4.48041 18.3246 4.85518 18.1328 5.60471L16.4749 13.7491C16.1 15.2142 15.9125 15.9467 15.3306 16.3743C15.0924 16.5494 14.8462 16.6314 14.5827 16.6667M15.1665 3.2992C14.0121 2.555 15.0066 1.66675 13.3327 1.66675L11.5367 3.07765C10.8214 3.63958 10.4637 3.92054 10.4368 4.31793C10.4098 4.71532 10.7259 5.04644 11.3582 5.70868L11.8199 6.19233C12.1361 6.52345 12.2941 6.68901 12.4838 6.67489C12.6735 6.66077 12.8076 6.47346 13.0759 6.09884L15.1665 3.2992Z" stroke="#0D0D0D" stroke-linecap="round" stroke-linejoin="round"/>
<path d="M8.57148 5.83325L9.2279 6.92766C9.43262 7.26898 9.53498 7.43964 9.56533 7.6312C9.59568 7.82276 9.55109 8.0167 9.46189 8.40458L7.95663 14.9508C7.75138 16.1057 8.36114 16.668 8.95336 17.4085C9.44645 18.025 9.69299 18.3333 9.99935 18.3333C10.3057 18.3333 10.5523 18.025 11.0453 17.4085C11.6376 16.668 12.2473 16.1057 12.0421 14.9508L10.5372 8.40453C10.448 8.01667 10.4034 7.82274 10.4338 7.6312C10.4641 7.43965 10.5665 7.26901 10.7712 6.92772L11.4276 5.83325" stroke="#0D0D0D" stroke-linecap="round"/>
</svg>
