<svg width="20" height="20" viewBox="0 0 20 20" fill="none" xmlns="http://www.w3.org/2000/svg">
<path d="M17.0827 14.1072V8.33341C17.0827 5.19072 17.0827 3.61937 16.1064 2.64306C15.1301 1.66675 13.5587 1.66675 10.416 1.66675H9.58268C6.43999 1.66675 4.86864 1.66675 3.89233 2.64306C2.91602 3.61937 2.91602 5.19072 2.91602 8.33341V16.2501" stroke="#0D0D0D" stroke-linecap="round"/>
<path d="M17.0827 14.1667H4.99935C3.84876 14.1667 2.91602 15.0995 2.91602 16.2501C2.91602 17.4007 3.84876 18.3334 4.99935 18.3334H17.0827" stroke="#0D0D0D" stroke-linecap="round"/>
<path d="M17.0833 18.3334C15.9327 18.3334 15 17.4007 15 16.2501C15 15.0995 15.9327 14.1667 17.0833 14.1667" stroke="#0D0D0D" stroke-linecap="round"/>
<path d="M12.5 5.83325L7.5 5.83325" stroke="#0D0D0D" stroke-linecap="round" stroke-linejoin="round"/>
<path d="M10 9.16675L7.5 9.16675" stroke="#0D0D0D" stroke-linecap="round" stroke-linejoin="round"/>
</svg>
