<svg width="20" height="20" viewBox="0 0 20 20" fill="none" xmlns="http://www.w3.org/2000/svg">
<path d="M2.47266 8.74683L2.47266 12.915C2.47266 15.2728 2.47266 16.4518 3.20489 17.1843C3.93712 17.9168 5.11563 17.9168 7.47266 17.9168H12.4727C14.8297 17.9168 16.0082 17.9168 16.7404 17.1843C17.4727 16.4518 17.4727 15.2728 17.4727 12.915V8.74683" stroke="#0D0D0D" stroke-linecap="round"/>
<path d="M5.80469 14.9944L9.13802 14.9944" stroke="#0D0D0D" stroke-linecap="round"/>
<path d="M8.41921 7.01516C8.1842 7.86382 7.32959 9.32777 5.70583 9.53994C4.27212 9.72727 3.18473 9.10146 2.90698 8.83979C2.60075 8.62762 1.90282 7.94869 1.73189 7.52436C1.56097 7.10003 1.76038 6.18064 1.90282 5.80581L2.47221 4.15715C2.61121 3.74306 2.9366 2.76364 3.27019 2.43236C3.60379 2.10109 4.27919 2.08667 4.55718 2.08667L10.3951 2.08667C11.8978 2.1079 15.1834 2.07328 15.833 2.08668C16.4825 2.10008 16.8727 2.64453 16.9867 2.87791C17.9558 5.22526 18.3327 6.56961 18.3327 7.14246C18.2061 7.75355 17.6827 8.90584 15.833 9.41264C13.9105 9.93938 12.8206 8.91486 12.4786 8.52154M7.6287 8.52154C7.89933 8.85393 8.74824 9.52297 9.97888 9.53994C11.2095 9.55691 12.2721 8.69835 12.6495 8.26694C12.7564 8.13964 12.9871 7.76198 13.2264 7.01516" stroke="#0D0D0D" stroke-linecap="round" stroke-linejoin="round"/>
</svg>
