<svg width="20" height="20" viewBox="0 0 20 20" fill="none" xmlns="http://www.w3.org/2000/svg">
<path d="M14.1673 9.99992C14.1673 12.3011 12.3018 14.1666 10.0007 14.1666C7.69947 14.1666 5.83398 12.3011 5.83398 9.99992C5.83398 7.69874 7.69947 5.83325 10.0007 5.83325" stroke="#0D0D0D" stroke-linecap="round"/>
<path d="M11.666 1.83345C11.1275 1.72413 10.5701 1.66675 9.99935 1.66675C5.39697 1.66675 1.66602 5.39771 1.66602 10.0001C1.66602 14.6024 5.39697 18.3334 9.99935 18.3334C14.6017 18.3334 18.3327 14.6024 18.3327 10.0001C18.3327 9.42933 18.2753 8.87191 18.166 8.33341" stroke="#0D0D0D" stroke-linecap="round"/>
<path d="M10.0254 9.96866L13.8195 6.17457M16.4505 3.62042L15.9895 1.96446C15.9046 1.69166 15.5764 1.58294 15.3551 1.76375C14.1583 2.74172 12.8547 4.05899 13.9193 6.13672C16.0645 7.13702 17.289 5.7881 18.228 4.65431C18.4148 4.42873 18.3021 4.08962 18.0207 4.00828L16.4505 3.62042Z" stroke="#0D0D0D" stroke-linecap="round" stroke-linejoin="round"/>
</svg>
