<svg width="20" height="20" viewBox="0 0 20 20" fill="none" xmlns="http://www.w3.org/2000/svg">
<path d="M11.666 8.95714L11.666 5.87737C11.666 5.18354 11.5401 5.04405 10.849 5.04405L8.89068 5.00009C8.28107 5.00009 7.97626 5.00009 7.85306 5.1977C7.72986 5.39531 7.86618 5.66557 8.1388 6.20609C8.29022 6.5063 8.37115 6.72371 8.37115 7.06018V9.27629C8.37115 9.97708 8.37115 10.3275 8.10488 10.4315C7.83861 10.5354 7.61733 10.3002 7.17476 9.82972C6.09004 8.67658 5.52548 7.23692 5.15436 5.66782C5.0775 5.34285 5.03906 5.18036 4.92435 5.09022C4.80964 5.00009 4.64626 5.00009 4.31951 5.00009L2.48679 5.00009C2.0847 5.00009 1.88366 5.00009 1.75808 5.14225C1.63249 5.28441 1.65684 5.46575 1.70554 5.82843C2.14491 9.10059 5.02268 14.4663 10.3389 14.9781C11.2804 15.0687 11.666 14.8143 11.666 13.7826C11.666 13.1978 11.6536 12.2524 12.3895 12.1285C12.7749 12.0636 13.0344 12.2005 13.4655 12.562C14.2123 13.1884 14.6033 13.9529 14.8758 14.5339C15.0565 14.9193 15.1909 15 15.6157 15H17.3442C18.2175 15 18.4555 14.7868 18.0665 13.9671C17.574 12.9292 16.873 12.1047 16.2357 11.5558C15.7064 11.0999 15.4417 10.8719 15.4269 10.7041C15.4121 10.5364 15.6063 10.2988 15.9947 9.82372C16.745 8.90591 17.7662 7.46483 18.2429 5.93568C18.479 5.17814 18.2568 5.00009 17.4894 5.00009L15.9368 5.00009C15.1847 5.00009 15.1852 4.97405 15.0076 5.82733C14.7195 7.21189 13.7758 8.54261 12.8893 9.4485C12.4687 9.87822 12.2145 10.137 11.9521 10.0316C11.6896 9.92614 11.666 9.60314 11.666 8.95714Z" stroke="#0D0D0D" stroke-linecap="round" stroke-linejoin="round"/>
</svg>
